<svg id="Flat" height="512" viewBox="0 0 512 512" width="512" xmlns="http://www.w3.org/2000/svg"><path d="m88 128-24-96s40 40 72 40 40-48 40-48 40 16 32 56l48-8s-8 56-40 72z" fill="#e07e30"/><path d="m440 336s16 64 0 112l-40-24-40 64-32-48-112 8 8-112-48-32 64-40-24-40c48-16 112 0 112 0v-40c56 24 56 96 56 96s72 0 96 56z" fill="#e07e30"/><path d="m476.116 177.14a8 8 0 0 0 -10.976 2.744c-23.071 38.452-85.778 93.544-86.409 94.1-.133.117-.263.239-.388.364l-9.933 9.933c-33.622-35.838-78.41-36.281-80.41-36.281a8 8 0 0 0 0 16c.373 0 31.917.3 59.34 22.5-60.316-1.945-93.9 17.71-95.456 18.641a8 8 0 0 0 8.21 13.733c.348-.206 32.558-18.769 89.959-16.24l-83.71 83.71a8 8 0 0 0 11.314 11.314l83.709-83.71c2.526 57.351-16 89.554-16.239 89.958a8 8 0 0 0 13.733 8.211c.931-1.552 20.581-35.127 18.643-95.423 22.021 27.317 22.497 58.906 22.497 59.325a8 8 0 0 0 16-.019c0-2-.443-46.788-36.276-80.41l9.747-9.748c4.712-4.136 65.466-57.854 89.389-97.726a8 8 0 0 0 -2.744-10.976z" fill="#c46f2a"/><g fill="#e8edf1"><path d="m400 104a8 8 0 0 1 -2.984-15.425c.366-.148 36.329-14.95 43.221-42.517a8 8 0 1 1 15.522 3.88c-8.89 35.56-51 52.772-52.79 53.488a7.992 7.992 0 0 1 -2.969.574z"/><path d="m408 136a8 8 0 0 1 -2.292-15.666c.712-.218 50.067-15.785 66.689-66.814a8 8 0 0 1 15.212 4.956c-19.318 59.31-74.964 76.487-77.324 77.189a7.987 7.987 0 0 1 -2.285.335z"/><path d="m112 304a7.989 7.989 0 0 1 -2.969-.574c-1.788-.716-43.9-17.928-52.79-53.488a8 8 0 1 1 15.522-3.88c3.55 14.2 14.981 24.951 23.945 31.47a100.267 100.267 0 0 0 19.265 11.042 8 8 0 0 1 -2.973 15.43z"/><path d="m104 336a7.974 7.974 0 0 1 -2.283-.335c-2.36-.7-58.006-17.879-77.324-77.189a8 8 0 0 1 15.212-4.956c16.658 51.142 66.195 66.665 66.693 66.815a8 8 0 0 1 -2.298 15.665z"/></g><path d="m183.633 137.417c17.524-4.694 34.688-11.161 51.55-17.515 40.027-15.081 77.833-29.327 111.6-14.853a8 8 0 1 1 -6.3 14.706c-27.852-11.936-61.128.6-99.659 15.12-15.5 5.839-32 12.058-49.192 16.9z" fill="#c46f2a"/><path d="m40 88s40 120 176 56c0 0-32-24-40-56-10.727 12.819-21.284 25.78-40 32 0 0-56-.43-96-32z" fill="#f4ae40"/></svg>