<svg id="Layer_1" enable-background="new 0 0 512 512" height="512" viewBox="0 0 512 512" width="512" xmlns="http://www.w3.org/2000/svg"><g id="XMLID_1_"><g id="XMLID_3332_"><g id="XMLID_7_"><path id="XMLID_2681_" d="m269 416.8-.3-10c102.9-3.4 159.7-49.6 189.3-87.7 35.9-46.3 44-94.4 44-107.7 0-13.7-17.4-16.2-18.1-16.3-1.9-.3-3.5-1.6-4.1-3.4-3.8-11.6-12.7-20.7-26.4-27-37.9-17.6-101.3-9.6-141.6 6.8-23.6 9.6-43 23.6-61.7 37.1-33.6 24.3-65.4 47.3-111.5 32.9-19.4-6-33.4-17.3-41.6-33.5-17.3-34.1-2.7-77.5-2.1-79.4.5-1.6 1.8-2.8 3.4-3.2 46.9-13.1 57.6-64.3 60-87.5-8.4 6-22.1 13.2-39.8 13.2-23.8 0-31.3 26.3-31.6 27.4-.7 2.4-2.9 3.9-5.4 3.7-2.5-.3-4.3-2.3-4.4-4.8-.6-16.7-10.9-34.6-32.1-34.6-14.6 0-26.8-11.1-34.7-20.9 2.1 43.2 12 67.1 20.5 79.8 10 15.1 20.1 17.8 20.2 17.9 2.5.6 4.1 3 3.8 5.6-21.1 145.6 15.3 235.8 108.4 268.1l-3.3 9.4c-97.4-33.7-136.3-126.3-115.5-275.1-12-5.7-44.4-29.8-44.4-122.6 0-2.3 1.6-4.3 3.8-4.9 2.2-.5 4.5.5 5.6 2.6.2.3 16.3 30.1 35.7 30.1 12.2 0 22.8 4.6 30.6 13.4 3.7 4.2 6.6 9.3 8.6 14.8 6.6-10.1 17.8-19.9 34.4-19.9 25.3 0 41.6-17.9 41.7-18 1.4-1.5 3.6-2.1 5.5-1.4s3.2 2.6 3.2 4.6c0 .9.1 22.5-8 46.7-10.6 31.6-30.4 52.7-57.4 61.2-2.7 9.2-10.9 43.2 2.3 69.2 6.9 13.7 18.9 23.2 35.6 28.4 41.3 12.8 69.7-7.7 102.7-31.5 19.2-13.9 39-28.2 63.7-38.2 43.4-17.6 108.7-25.6 149.6-6.6 15.2 7 25.5 17.2 30.7 30.1 9.6 2.2 23.7 9.5 23.7 25.7 0 15.1-8.3 65.1-46.1 113.8-20.1 25.8-45.1 46.6-74.3 61.8-35.1 18.3-76.4 28.3-122.6 29.9z"/></g><g id="XMLID_96_"><path id="XMLID_2680_" d="m451 342.4-8.6-5.1c39.8-67.3 37.2-146.1 37.2-146.9l10-.4c.1 3.3 2.7 82.6-38.6 152.4z"/></g><g id="XMLID_97_"><path id="XMLID_2679_" d="m389.7 387.3-8.4-5.5c62.4-94.8 56.1-187.5 56-188.4l10-.8c.1 1 1.8 24.6-4.4 60.5-5.8 33.1-19.7 83.2-53.2 134.2z"/></g><g id="XMLID_139_"><path id="XMLID_2678_" d="m330.5 407.9-8.2-5.8c56.2-79.4 54-188.3 53.9-189.4l10-.3c0 1.1.7 28.6-5.8 66.5-5.9 35.2-19.4 86-49.9 129z"/></g><g id="XMLID_140_"><path id="XMLID_2676_" d="m276.5 415.2-7.7-6.4c38.3-45.9 39.5-115 39.5-115.7l10 .1c0 3-1.2 73.3-41.8 122z"/></g><g id="XMLID_6_"><path id="XMLID_2675_" d="m139.6 512c-4.4 0-6.5-2-7.4-3.7-2.6-4.7.7-9.8 7.9-21 7.3-11.4 18.4-28.6 27.4-52.1 17.4-45.4 11.6-67.3 11.6-67.5l9.6-2.8c.3 1 6.9 24.9-11.9 73.9-9.4 24.5-20.8 42.2-28.4 53.9-2.1 3.2-4.3 6.7-5.7 9.2 35-1 67.5-18.7 96.7-52.7 44.8-52.2 37.3-135.9 37.3-136.8-.3-2.7 1.6-5.1 4.3-5.4 1.1-.2 27-4.6 45.6-41.6 12.5-25.1 28.7-42.8 50.3-55.9 27.3-16.5 62.2-24.5 108.2-24.5v10c-99 0-131.9 40-149.3 74.8-16.5 32.9-39.1 43-48.6 45.9.4 7.8.8 25.2-2.1 46.6-3.5 26.5-13 64.2-38 93.3-20.5 23.8-42.9 40.3-66.8 49.1-19.4 7.3-34.3 7.3-40.7 7.3z"/></g><g id="XMLID_1521_"><path id="XMLID_2674_" d="m310.4 512c-4.2 0-8.9-.5-11.1-4.2-2.7-4.3-.3-8.9 3.6-16.6 6.1-11.9 16.3-31.9 18.3-66.3l10 .6c-2.2 36.5-13.4 58.5-19.4 70.3-1.1 2.2-2.3 4.5-3 6.2h1.7c73.1 0 100.4-135.3 100.6-136.7l9.8 1.9c-.3 1.5-7.2 36.2-23.9 71.5-22.6 48-52.6 73.3-86.6 73.3z"/></g><g id="XMLID_705_"><path id="XMLID_2671_" d="m301 269c-11 0-20-9-20-20s9-20 20-20 20 9 20 20-9 20-20 20zm0-30c-5.5 0-10 4.5-10 10s4.5 10 10 10 10-4.5 10-10-4.5-10-10-10z"/></g></g></g></svg>